<?xml version="1.0" encoding="UTF-8"?>
<svg xmlns="http://www.w3.org/2000/svg" width="860" height="260" viewBox="0 0 860 260">
  <rect x="20" y="20" width="200" height="60" rx="6" fill="#f8fbf8" stroke="#cde"/>
  <text x="120" y="55" font-family="Arial" font-size="12" text-anchor="middle" fill="#123">Core App</text>

  <rect x="260" y="20" width="260" height="60" rx="6" fill="#fff7ee" stroke="#f0c"/>
  <text x="390" y="35" font-family="Arial" font-size="12" text-anchor="middle" fill="#123">Integration Service</text>
  <text x="390" y="51" font-family="Arial" font-size="11" text-anchor="middle" fill="#555">Mapping • Validation • Auth</text>

  <rect x="560" y="20" width="260" height="60" rx="6" fill="#f0f7ff" stroke="#cce"/>
  <text x="690" y="55" font-family="Arial" font-size="12" text-anchor="middle" fill="#123">LOB System (Salesforce / SAP)</text>

  <line x1="220" y1="50" x2="260" y2="50" stroke="#333" stroke-width="2" marker-end="url(#arrow)" />
  <line x1="520" y1="50" x2="560" y2="50" stroke="#333" stroke-width="2" marker-end="url(#arrow)" />

  <rect x="260" y="110" width="260" height="80" rx="6" fill="#ffffff" stroke="#e8e8e8"/>
  <text x="390" y="140" font-family="Arial" font-size="12" text-anchor="middle" fill="#123">Sync Worker</text>
  <text x="390" y="156" font-family="Arial" font-size="11" text-anchor="middle" fill="#555">Queue • Retries • Dead-letter</text>

  <defs>
    <marker id="arrow" markerWidth="10" markerHeight="10" refX="6" refY="3" orient="auto">
      <path d="M0,0 L0,6 L6,3 z" fill="#333" />
    </marker>
  </defs>

  <line x1="390" y1="90" x2="390" y2="110" stroke="#999" stroke-dasharray="4 4"/>
  <rect x="20" y="170" width="200" height="60" rx="6" fill="#fff" stroke="#ddd"/>
  <text x="120" y="205" font-family="Arial" font-size="12" text-anchor="middle" fill="#123">Monitoring &amp; Alerting</text>
  <line x1="390" y1="190" x2="120" y2="170" stroke="#aaa" stroke-width="1" marker-end="url(#arrow)" />

</svg>
