<?xml version="1.0" encoding="UTF-8"?>
<svg xmlns="http://www.w3.org/2000/svg" width="800" height="260" viewBox="0 0 800 260">
  <rect x="20" y="20" width="180" height="60" rx="6" fill="#f0f6fb" stroke="#bcd"/>
  <text x="110" y="55" font-family="Arial" font-size="12" text-anchor="middle" fill="#123">Client</text>

  <rect x="260" y="20" width="220" height="60" rx="6" fill="#fff7ed" stroke="#f0c"/>
  <text x="370" y="55" font-family="Arial" font-size="12" text-anchor="middle" fill="#123">API Gateway / Service</text>

  <rect x="540" y="20" width="220" height="60" rx="6" fill="#eef7ef" stroke="#bfe"/>
  <text x="650" y="55" font-family="Arial" font-size="12" text-anchor="middle" fill="#123">Downstream Service</text>

  <line x1="200" y1="50" x2="260" y2="50" stroke="#333" stroke-width="2" marker-end="url(#arrow)" />
  <line x1="480" y1="50" x2="540" y2="50" stroke="#333" stroke-width="2" marker-end="url(#arrow)" />

  <rect x="260" y="110" width="220" height="80" rx="6" fill="#f7f7f7" stroke="#ddd"/>
  <text x="370" y="140" font-family="Arial" font-size="12" text-anchor="middle" fill="#123">Resilience Layer</text>
  <text x="370" y="156" font-family="Arial" font-size="11" text-anchor="middle" fill="#555">Circuit Breaker • Retry • Fallback • Metrics</text>

  <defs>
    <marker id="arrow" markerWidth="10" markerHeight="10" refX="6" refY="3" orient="auto">
      <path d="M0,0 L0,6 L6,3 z" fill="#333" />
    </marker>
  </defs>
  <line x1="370" y1="80" x2="370" y2="110" stroke="#999" stroke-dasharray="4 4"/>

  <rect x="20" y="170" width="180" height="60" rx="6" fill="#fff" stroke="#ddd"/>
  <text x="110" y="205" font-family="Arial" font-size="12" text-anchor="middle" fill="#123">Monitoring</text>
  <text x="110" y="221" font-family="Arial" font-size="11" text-anchor="middle" fill="#555">Prometheus / Grafana</text>

  <line x1="370" y1="150" x2="110" y2="170" stroke="#aaa" stroke-width="1" marker-end="url(#arrow)" />

</svg>
